<?xml version="1.0" ?><svg id="Capa_1" style="enable-background:new 0 0 512 512;" version="1.1" viewBox="0 0 512 512" xml:space="preserve" xmlns="http://www.w3.org/2000/svg" xmlns:xlink="http://www.w3.org/1999/xlink"><g><g><polygon points="236.232,246.003 236.232,186.001 158.875,186.001 150.303,246.003   " style="fill:#96C8EB;"/><path d="M236.232,186.001v60.002h83.129l-24.936-58.183c-0.202-0.473-0.506-1.168-0.837-1.819H236.232z" style="fill:#96C8EB;"/></g><path d="M319.361,246.003h-83.129h-85.93l8.572-60.002h77.357h57.356c0.331,0.651,0.635,1.347,0.837,1.819   L319.361,246.003L319.361,246.003z M486.999,326.003v-40.002v-16.248c0-12.378-8.988-22.383-19.999-22.501l-115-1.249   l-30.002-69.999C317.5,165.506,310.342,156,294.185,156H150c-11,0-18.445,9.11-20,20.004l-10.001,69.999L45,247.252   c-11.024,0.183-20,10.123-20,22.501v16.248v40.002h54.996C89.119,313.858,103.642,306,119.999,306c27.614,0,50,22.388,50,50H352   c0-27.612,22.385-50,50-50c16.357,0,30.881,7.858,40.004,20.003H486.999z" style="fill:#FF9D21;"/><g><path d="M70,356c0-11.255,3.721-21.643,9.996-29.997H25H10v14.999C10,349.249,16.75,356,25,356H70z" style="fill:#FFDAAE;"/><path d="M442.004,326.003C448.278,334.357,452,344.745,452,356h34.999c8.25,0,15.001-6.751,15.001-14.998    v-14.999h-15.001L442.004,326.003L442.004,326.003z" style="fill:#FFDAAE;"/></g><path d="M452,356c0-11.255-3.722-21.643-9.996-29.997C432.881,313.858,418.357,306,402,306   c-27.615,0-50,22.388-50,50c0,27.616,22.385,50,50,50C429.613,406,452,383.616,452,356L452,356z M402,336.005   c11.041,0,19.994,8.952,19.994,19.995s-8.953,19.995-19.994,19.995c-11.043,0-19.996-8.952-19.996-19.995   S390.957,336.005,402,336.005z" style="fill:#986E62;"/><g><circle cx="402" cy="356" r="19.995" style="fill:#FFDAAE;"/><circle cx="120" cy="356" r="19.995" style="fill:#FFDAAE;"/></g><path d="M119.999,336.005c11.044,0,19.995,8.952,19.995,19.995s-8.951,19.995-19.995,19.995   c-11.041,0-19.995-8.952-19.995-19.995S108.958,336.005,119.999,336.005L119.999,336.005z M169.999,356c0-27.612-22.386-50-50-50   c-16.357,0-30.88,7.858-40.003,20.003C73.721,334.357,70,344.745,70,356c0,27.449,22.121,49.735,49.509,50h0.49   C147.613,406,169.999,383.616,169.999,356z" style="fill:#986E62;"/><path d="M221.232,156h30v-34.997c0-8.252-6.75-15.003-15.002-15.003c-8.25,0-14.998,6.751-14.998,15.003V156   z" style="fill:#FFDAAE;"/></g><g><path d="M502,316.003h-5.001v-46.25c0-17.744-13.409-32.323-29.891-32.5l-108.484-1.179l-27.434-64.009   C328.428,165.619,320.021,146,294.185,146h-32.953v-24.997c0-13.787-11.214-25.003-25.002-25.003   c-13.785,0-24.998,11.216-24.998,25.003V146H150c-15.201,0-27.496,11.757-29.899,28.59l-8.796,61.557l-66.472,1.107   C28.383,237.525,15,252.105,15,269.753v46.25h-5c-5.524,0-10,4.478-10,10v14.999C0,354.786,11.215,366,25,366h35.849   c1.923,11.409,7.069,21.734,14.478,30h-36.36c-5.523,0-10,4.478-10,10s4.477,10,10,10h81.032c0.001,0,0.001,0,0.001,0   s0.001,0,0.002,0c29.674,0,54.371-21.661,59.148-50h163.698c4.776,28.339,29.476,50,59.151,50h71.032c5.522,0,10-4.478,10-10   s-4.478-10-10-10h-26.36c7.41-8.266,12.555-18.591,14.478-30h25.849C500.784,366,512,354.786,512,341.002v-14.999   C512,320.48,507.522,316.003,502,316.003z M231.232,121.003c0-2.712,2.289-5.003,5.002-5.003c2.709,0,4.998,2.291,4.998,5.003V146   h-10V121.003z M35,296.001h6.613c5.523,0,10-4.478,10-10c0-5.523-4.477-10-10-10H35v-6.248c0-6.801,4.56-12.409,10.166-12.502   l75-1.249c4.912-0.082,9.037-3.721,9.732-8.585l10.002-70C140.711,171.734,144.148,166,150,166h71.232h30h42.953   c9.219,0,14.267,3.778,18.621,13.943l30.002,69.999c1.561,3.641,5.121,6.017,9.082,6.06l115.002,1.249   c5.572,0.061,10.107,5.668,10.107,12.502v6.248h-6.614c-5.522,0-10,4.477-10,10c0,5.522,4.478,10,10,10h6.614v20.002h-30.323   C435.682,303.736,419.729,296,402,296c-29.676,0-54.375,21.661-59.151,50H179.15c-4.777-28.339-29.475-50-59.148-50   c-17.73,0-33.684,7.736-44.678,20.003H35V296.001z M20,341.002v-4.999h43.439c-1.141,3.216-2.011,6.558-2.591,9.997H25   C22.289,346,20,343.711,20,341.002z M120.002,396C97.944,396,80,378.056,80,356s17.944-40,40.002-40   c22.055,0,39.997,17.944,39.997,40S142.057,396,120.002,396z M362,356c0-22.056,17.943-40,40-40c22.056,0,40,17.944,40,40   s-17.944,40-40,40C379.943,396,362,378.056,362,356z M492,341.002c0,2.709-2.291,4.998-5.001,4.998H461.15   c-0.58-3.439-1.449-6.781-2.59-9.997H492V341.002z" style="fill:#000001;"/><path d="M402,326.005c-16.539,0-29.994,13.456-29.994,29.995s13.455,29.995,29.994,29.995   s29.994-13.456,29.994-29.995S418.539,326.005,402,326.005z M402,365.995c-5.511,0-9.994-4.483-9.994-9.995   s4.483-9.995,9.994-9.995s9.994,4.483,9.994,9.995S407.511,365.995,402,365.995z" style="fill:#000001;"/><path d="M120.002,326.005c-16.54,0-29.996,13.456-29.996,29.995s13.456,29.995,29.996,29.995   c16.539,0,29.994-13.456,29.994-29.995S136.541,326.005,120.002,326.005z M120.002,365.995c-5.512,0-9.996-4.483-9.996-9.995   s4.484-9.995,9.996-9.995c5.511,0,9.994,4.483,9.994,9.995S125.513,365.995,120.002,365.995z" style="fill:#000001;"/><path d="M150.303,256.003h169.059c3.361,0,6.498-1.688,8.35-4.495c1.85-2.807,2.166-6.354,0.842-9.444   l-24.93-58.167c-0.256-0.601-0.651-1.507-1.122-2.432c-1.706-3.353-5.15-5.464-8.912-5.464H158.875c-4.977,0-9.196,3.659-9.9,8.586   l-8.57,60.002c-0.41,2.87,0.445,5.776,2.344,7.966C144.648,254.745,147.404,256.003,150.303,256.003z M304.196,236.003h-57.964   v-40.002h40.819L304.196,236.003z M167.547,196.001h58.686v40.002h-64.399L167.547,196.001z" style="fill:#000001;"/><path d="M10.236,396H10c-5.524,0-10,4.478-10,10s4.476,10,10,10h0.236c5.522,0,10-4.478,10-10   S15.759,396,10.236,396z" style="fill:#000001;"/><path d="M502,396h-0.236c-5.523,0-10,4.478-10,10s4.477,10,10,10H502c5.522,0,10-4.478,10-10   S507.522,396,502,396z" style="fill:#000001;"/><path d="M228.499,296.001H243.5c5.522,0,10-4.478,10-10c0-5.523-4.478-10-10-10h-15.001   c-5.523,0-10,4.477-10,10C218.499,291.523,222.976,296.001,228.499,296.001z" style="fill:#000001;"/><path d="M268.498,306.002h-14.999c-5.523,0-10,4.477-10,10c0,5.522,4.477,10,10,10h14.999   c5.522,0,10-4.478,10-10C278.498,310.479,274.02,306.002,268.498,306.002z" style="fill:#000001;"/><path d="M203.5,286.001c0-5.523-4.478-10-10-10h-15c-5.524,0-10,4.477-10,10c0,5.522,4.476,10,10,10h15   C199.022,296.001,203.5,291.523,203.5,286.001z" style="fill:#000001;"/><path d="M218.5,306.002h-15c-5.524,0-10,4.477-10,10c0,5.522,4.476,10,10,10h15c5.522,0,10-4.478,10-10   C228.5,310.479,224.022,306.002,218.5,306.002z" style="fill:#000001;"/><path d="M303.5,286.001c0-5.523-4.478-10-10-10h-15.001c-5.523,0-10,4.477-10,10c0,5.522,4.477,10,10,10   H293.5C299.022,296.001,303.5,291.523,303.5,286.001z" style="fill:#000001;"/><path d="M318.498,306.002h-15.001c-5.522,0-10,4.477-10,10c0,5.522,4.478,10,10,10h15.001   c5.523,0,10-4.478,10-10C328.498,310.479,324.021,306.002,318.498,306.002z" style="fill:#000001;"/><path d="M318.499,286.001c0,5.522,4.478,10,10,10h14.999c5.523,0,10-4.478,10-10c0-5.523-4.477-10-10-10   h-14.999C322.977,276.001,318.499,280.478,318.499,286.001z" style="fill:#000001;"/></g><g/><g/><g/><g/><g/><g/><g/><g/><g/><g/><g/><g/><g/><g/><g/></svg>